<svg xmlns="http://www.w3.org/2000/svg" xmlns:xlink="http://www.w3.org/1999/xlink" width="512" zoomAndPan="magnify" viewBox="0 0 384 383.999986" height="512" preserveAspectRatio="xMidYMid meet" version="1.2"><defs><clipPath id="88aa82ea4a"><path d="M 70.75 77.582031 L 313.664062 77.582031 L 313.664062 297.273438 L 70.75 297.273438 Z M 70.75 77.582031 "/></clipPath><clipPath id="c11d7a4f58"><path d="M 216.1875 91.84375 L 309.386719 254.945312 C 314.390625 263.699219 314.355469 274.457031 309.292969 283.179688 C 304.230469 291.902344 294.910156 297.273438 284.824219 297.273438 L 99.175781 297.273438 C 89.089844 297.273438 79.769531 291.902344 74.707031 283.179688 C 69.644531 274.457031 69.609375 263.699219 74.613281 254.945312 L 167.8125 91.84375 C 172.773438 83.164062 182.003906 77.808594 192 77.808594 C 201.996094 77.808594 211.226562 83.164062 216.1875 91.84375 Z M 216.1875 91.84375 "/></clipPath></defs><g id="8579b1f383"><g clip-rule="nonzero" clip-path="url(#88aa82ea4a)"><g clip-rule="nonzero" clip-path="url(#c11d7a4f58)"><path style=" stroke:none;fill-rule:nonzero;fill:#499c70;fill-opacity:1;" d="M 50.425781 49.519531 L 333.988281 49.519531 L 333.988281 297.273438 L 50.425781 297.273438 Z M 50.425781 49.519531 "/></g></g></g></svg>