<svg xmlns="http://www.w3.org/2000/svg" xmlns:xlink="http://www.w3.org/1999/xlink" width="1000" zoomAndPan="magnify" viewBox="0 0 750 104.999996" height="140" preserveAspectRatio="xMidYMid meet" version="1.2"><defs><clipPath id="22e1010506"><path d="M 151 4 L 243 4 L 243 86.683594 L 151 86.683594 Z M 151 4 "/></clipPath></defs><g id="b8fdbcbc73"><g style="fill:#3264b7;fill-opacity:1;"><g transform="translate(3.541029, 74.861269)"><path style="stroke:none" d="M 4.125 -56.640625 L 21.703125 -56.640625 C 27.003906 -56.640625 31.234375 -55.503906 34.390625 -53.234375 C 37.554688 -50.972656 39.140625 -47.300781 39.140625 -42.21875 C 39.140625 -36.539062 36.78125 -32.492188 32.0625 -30.078125 C 40.113281 -28.648438 44.140625 -23.890625 44.140625 -15.796875 C 44.140625 -11.035156 42.492188 -7.210938 39.203125 -4.328125 C 35.910156 -1.441406 31.378906 0 25.609375 0 L 4.125 0 Z M 17.03125 -34.46875 L 18.0625 -34.46875 C 20.9375 -34.46875 23.082031 -34.96875 24.5 -35.96875 C 25.925781 -36.976562 26.640625 -38.628906 26.640625 -40.921875 C 26.640625 -44.765625 23.78125 -46.6875 18.0625 -46.6875 L 17.03125 -46.6875 Z M 17.03125 -9.953125 L 21.078125 -9.953125 C 27.390625 -9.953125 30.546875 -12.054688 30.546875 -16.265625 C 30.546875 -18.785156 29.753906 -20.59375 28.171875 -21.6875 C 26.597656 -22.789062 24.234375 -23.34375 21.078125 -23.34375 L 17.03125 -23.34375 Z M 17.03125 -9.953125 "/></g></g><g style="fill:#3264b7;fill-opacity:1;"><g transform="translate(49.256458, 74.861269)"><path style="stroke:none" d="M 7.4375 -4.1875 C 3.53125 -7.664062 1.578125 -12.128906 1.578125 -17.578125 C 1.578125 -23.023438 3.613281 -27.5 7.6875 -31 C 11.757812 -34.5 16.796875 -36.25 22.796875 -36.25 C 28.703125 -36.25 33.675781 -34.484375 37.71875 -30.953125 C 41.769531 -27.429688 43.796875 -22.96875 43.796875 -17.5625 C 43.796875 -12.164062 41.816406 -7.71875 37.859375 -4.21875 C 33.898438 -0.71875 28.878906 1.03125 22.796875 1.03125 C 16.472656 1.03125 11.351562 -0.707031 7.4375 -4.1875 Z M 16.84375 -23.546875 C 15.269531 -21.992188 14.484375 -20.003906 14.484375 -17.578125 C 14.484375 -15.148438 15.238281 -13.171875 16.75 -11.640625 C 18.257812 -10.109375 20.25 -9.34375 22.71875 -9.34375 C 25.101562 -9.34375 27.0625 -10.117188 28.59375 -11.671875 C 30.125 -13.222656 30.890625 -15.191406 30.890625 -17.578125 C 30.890625 -20.003906 30.097656 -21.992188 28.515625 -23.546875 C 26.941406 -25.109375 25.007812 -25.890625 22.71875 -25.890625 C 20.382812 -25.890625 18.425781 -25.109375 16.84375 -23.546875 Z M 16.84375 -23.546875 "/></g></g><g style="fill:#3264b7;fill-opacity:1;"><g transform="translate(94.628685, 74.861269)"><path style="stroke:none" d="M 44.90625 0 L 30.203125 0 L 22.453125 -9.953125 L 14.6875 0 L 0 0 L 15.03125 -18.40625 L 2.125 -35.21875 L 16.34375 -35.21875 L 22.453125 -27.046875 L 28.5625 -35.21875 L 42.765625 -35.21875 L 29.859375 -18.40625 Z M 44.90625 0 "/></g></g><g style="fill:#3264b7;fill-opacity:1;"><g transform="translate(246.155984, 76.24884)"><path style="stroke:none" d="M 34.296875 -11.6875 C 36.265625 -11.6875 38.175781 -11.984375 40.03125 -12.578125 C 41.894531 -13.171875 43.257812 -13.742188 44.125 -14.296875 L 45.4375 -15.1875 L 50.9375 -4.1875 C 50.75 -4.050781 50.492188 -3.867188 50.171875 -3.640625 C 49.847656 -3.410156 49.101562 -2.984375 47.9375 -2.359375 C 46.769531 -1.742188 45.519531 -1.207031 44.1875 -0.75 C 42.863281 -0.289062 41.125 0.117188 38.96875 0.484375 C 36.8125 0.847656 34.59375 1.03125 32.3125 1.03125 C 27.039062 1.03125 22.039062 -0.257812 17.3125 -2.84375 C 12.59375 -5.4375 8.789062 -9 5.90625 -13.53125 C 3.019531 -18.070312 1.578125 -22.976562 1.578125 -28.25 C 1.578125 -32.238281 2.425781 -36.066406 4.125 -39.734375 C 5.820312 -43.398438 8.078125 -46.535156 10.890625 -49.140625 C 13.710938 -51.753906 17 -53.835938 20.75 -55.390625 C 24.507812 -56.953125 28.363281 -57.734375 32.3125 -57.734375 C 35.96875 -57.734375 39.34375 -57.296875 42.4375 -56.421875 C 45.53125 -55.554688 47.71875 -54.6875 49 -53.8125 L 50.9375 -52.515625 L 45.4375 -41.515625 C 45.113281 -41.785156 44.628906 -42.113281 43.984375 -42.5 C 43.347656 -42.894531 42.066406 -43.410156 40.140625 -44.046875 C 38.210938 -44.691406 36.265625 -45.015625 34.296875 -45.015625 C 31.179688 -45.015625 28.382812 -44.507812 25.90625 -43.5 C 23.4375 -42.5 21.476562 -41.171875 20.03125 -39.515625 C 18.59375 -37.867188 17.492188 -36.09375 16.734375 -34.1875 C 15.984375 -32.289062 15.609375 -30.359375 15.609375 -28.390625 C 15.609375 -24.078125 17.222656 -20.210938 20.453125 -16.796875 C 23.679688 -13.390625 28.296875 -11.6875 34.296875 -11.6875 Z M 34.296875 -11.6875 "/></g></g><g style="fill:#3264b7;fill-opacity:1;"><g transform="translate(297.901495, 76.24884)"><path style="stroke:none" d="M 6.53125 -4.359375 C 3.226562 -7.960938 1.578125 -12.375 1.578125 -17.59375 C 1.578125 -22.820312 3.226562 -27.242188 6.53125 -30.859375 C 9.832031 -34.484375 14.023438 -36.296875 19.109375 -36.296875 C 23.785156 -36.296875 27.632812 -34.828125 30.65625 -31.890625 L 30.65625 -35.265625 L 42.828125 -35.265625 L 42.828125 0 L 30.796875 0 L 30.796875 -3.984375 L 30.65625 -3.984375 C 27.632812 -0.640625 23.785156 1.03125 19.109375 1.03125 C 14.023438 1.03125 9.832031 -0.765625 6.53125 -4.359375 Z M 16.875 -23.5625 C 15.289062 -22.007812 14.5 -20.019531 14.5 -17.59375 C 14.5 -15.164062 15.253906 -13.179688 16.765625 -11.640625 C 18.285156 -10.109375 20.28125 -9.34375 22.75 -9.34375 C 25.132812 -9.34375 27.09375 -10.117188 28.625 -11.671875 C 30.164062 -13.234375 30.9375 -15.207031 30.9375 -17.59375 C 30.9375 -20.019531 30.144531 -22.007812 28.5625 -23.5625 C 26.976562 -25.125 25.039062 -25.90625 22.75 -25.90625 C 20.414062 -25.90625 18.457031 -25.125 16.875 -23.5625 Z M 16.875 -23.5625 "/></g></g><g style="fill:#3264b7;fill-opacity:1;"><g transform="translate(344.836665, 76.24884)"><path style="stroke:none" d="M 19.453125 -36.296875 C 21.460938 -36.296875 23.453125 -36.066406 25.421875 -35.609375 C 27.398438 -35.148438 28.867188 -34.691406 29.828125 -34.234375 L 31.28125 -33.546875 L 27.28125 -25.5625 C 24.53125 -27.03125 21.921875 -27.765625 19.453125 -27.765625 C 18.078125 -27.765625 17.101562 -27.613281 16.53125 -27.3125 C 15.957031 -27.019531 15.671875 -26.460938 15.671875 -25.640625 C 15.671875 -25.453125 15.691406 -25.265625 15.734375 -25.078125 C 15.785156 -24.898438 15.878906 -24.726562 16.015625 -24.5625 C 16.148438 -24.40625 16.273438 -24.269531 16.390625 -24.15625 C 16.503906 -24.039062 16.695312 -23.914062 16.96875 -23.78125 C 17.25 -23.644531 17.46875 -23.539062 17.625 -23.46875 C 17.789062 -23.40625 18.054688 -23.300781 18.421875 -23.15625 C 18.785156 -23.019531 19.054688 -22.914062 19.234375 -22.84375 C 19.421875 -22.78125 19.734375 -22.679688 20.171875 -22.546875 C 20.609375 -22.410156 20.941406 -22.316406 21.171875 -22.265625 C 22.585938 -21.859375 23.820312 -21.398438 24.875 -20.890625 C 25.9375 -20.390625 27.050781 -19.703125 28.21875 -18.828125 C 29.382812 -17.960938 30.285156 -16.863281 30.921875 -15.53125 C 31.566406 -14.207031 31.890625 -12.695312 31.890625 -11 C 31.890625 -2.976562 26.320312 1.03125 15.1875 1.03125 C 12.664062 1.03125 10.269531 0.640625 8 -0.140625 C 5.738281 -0.921875 4.101562 -1.695312 3.09375 -2.46875 L 1.578125 -3.71875 L 6.53125 -12.03125 C 6.894531 -11.707031 7.375 -11.328125 7.96875 -10.890625 C 8.5625 -10.453125 9.640625 -9.851562 11.203125 -9.09375 C 12.765625 -8.34375 14.117188 -7.96875 15.265625 -7.96875 C 17.785156 -7.96875 19.046875 -8.816406 19.046875 -10.515625 C 19.046875 -11.296875 18.722656 -11.898438 18.078125 -12.328125 C 17.429688 -12.765625 16.34375 -13.257812 14.8125 -13.8125 C 13.28125 -14.363281 12.078125 -14.867188 11.203125 -15.328125 C 9.003906 -16.472656 7.265625 -17.765625 5.984375 -19.203125 C 4.703125 -20.648438 4.0625 -22.566406 4.0625 -24.953125 C 4.0625 -28.523438 5.445312 -31.304688 8.21875 -33.296875 C 10.988281 -35.296875 14.734375 -36.296875 19.453125 -36.296875 Z M 19.453125 -36.296875 "/></g></g><g style="fill:#3264b7;fill-opacity:1;"><g transform="translate(378.64648, 76.24884)"><path style="stroke:none" d="M 39.796875 -15.953125 L 14.234375 -15.953125 C 14.234375 -13.472656 15.035156 -11.632812 16.640625 -10.4375 C 18.242188 -9.25 19.984375 -8.65625 21.859375 -8.65625 C 23.828125 -8.65625 25.382812 -8.914062 26.53125 -9.4375 C 27.675781 -9.96875 28.984375 -11.015625 30.453125 -12.578125 L 39.25 -8.171875 C 35.582031 -2.035156 29.488281 1.03125 20.96875 1.03125 C 15.644531 1.03125 11.082031 -0.785156 7.28125 -4.421875 C 3.476562 -8.066406 1.578125 -12.457031 1.578125 -17.59375 C 1.578125 -22.726562 3.476562 -27.128906 7.28125 -30.796875 C 11.082031 -34.460938 15.644531 -36.296875 20.96875 -36.296875 C 26.550781 -36.296875 31.09375 -34.675781 34.59375 -31.4375 C 38.101562 -28.207031 39.859375 -23.59375 39.859375 -17.59375 C 39.859375 -16.769531 39.835938 -16.222656 39.796875 -15.953125 Z M 14.578125 -22.6875 L 27.96875 -22.6875 C 27.695312 -24.519531 26.976562 -25.925781 25.8125 -26.90625 C 24.644531 -27.894531 23.144531 -28.390625 21.3125 -28.390625 C 19.289062 -28.390625 17.679688 -27.859375 16.484375 -26.796875 C 15.296875 -25.742188 14.660156 -24.375 14.578125 -22.6875 Z M 14.578125 -22.6875 "/></g></g><g clip-rule="nonzero" clip-path="url(#22e1010506)"><path style=" stroke:none;fill-rule:nonzero;fill:#499c70;fill-opacity:1;" d="M 208.921875 11.140625 L 240.726562 66.226562 C 245.972656 75.316406 239.414062 86.671875 228.921875 86.671875 L 165.316406 86.671875 C 154.824219 86.671875 148.265625 75.3125 153.511719 66.226562 L 185.316406 11.140625 C 190.5625 2.054688 203.675781 2.054688 208.921875 11.140625 Z M 208.921875 11.140625 "/></g><g style="fill:#ffffff;fill-opacity:1;"><g transform="translate(178.179422, 69.338891)"><path style="stroke:none" d="M 11.1875 -23.109375 L 11.1875 0 L 2.703125 0 L 2.703125 -37.234375 L 11.1875 -37.234375 L 26 -14.125 L 26.09375 -14.125 L 26.09375 -37.234375 L 34.578125 -37.234375 L 34.578125 0 L 26.09375 0 L 11.28125 -23.109375 Z M 11.1875 -23.109375 "/></g></g><path style="fill:none;stroke-width:6;stroke-linecap:butt;stroke-linejoin:miter;stroke:#737373;stroke-opacity:1;stroke-miterlimit:4;" d="M -0.00230016 3.000176 L 129.305025 3.000176 " transform="matrix(0,0.748278,-0.748278,0,442.920747,2.087659)"/><g style="fill:#545454;fill-opacity:1;"><g transform="translate(450.807986, 78.171419)"><path style="stroke:none" d="M 6.4375 -57.078125 L 25.84375 -57.078125 C 39 -57.078125 45.578125 -50.90625 45.578125 -38.5625 C 45.578125 -32.257812 43.878906 -27.570312 40.484375 -24.5 C 37.085938 -21.425781 32.265625 -19.890625 26.015625 -19.890625 L 15.578125 -19.890625 L 15.578125 0 L 6.4375 0 Z M 24.78125 -27.5625 C 28.695312 -27.5625 31.632812 -28.457031 33.59375 -30.25 C 35.550781 -32.039062 36.53125 -34.785156 36.53125 -38.484375 C 36.53125 -42.234375 35.578125 -44.988281 33.671875 -46.75 C 31.765625 -48.519531 28.773438 -49.40625 24.703125 -49.40625 L 15.578125 -49.40625 L 15.578125 -27.5625 Z M 24.78125 -27.5625 "/></g></g><g style="fill:#545454;fill-opacity:1;"><g transform="translate(498.25519, 78.171419)"><path style="stroke:none" d="M 13.9375 0.8125 C 10.40625 0.8125 7.507812 -0.269531 5.25 -2.4375 C 3 -4.613281 1.875 -7.46875 1.875 -11 C 1.875 -14.539062 3.109375 -17.367188 5.578125 -19.484375 C 8.054688 -21.609375 11.0625 -23.117188 14.59375 -24.015625 C 18.125 -24.910156 21.710938 -25.382812 25.359375 -25.4375 C 25.304688 -28.53125 24.640625 -30.660156 23.359375 -31.828125 C 22.078125 -33.003906 20.023438 -33.59375 17.203125 -33.59375 C 15.460938 -33.59375 13.734375 -33.332031 12.015625 -32.8125 C 10.304688 -32.300781 8.421875 -31.421875 6.359375 -30.171875 L 5.375 -37.09375 C 7.382812 -38.34375 9.597656 -39.304688 12.015625 -39.984375 C 14.441406 -40.671875 16.929688 -41.015625 19.484375 -41.015625 C 24.484375 -41.015625 28.125 -39.65625 30.40625 -36.9375 C 32.6875 -34.21875 33.828125 -29.597656 33.828125 -23.078125 L 33.828125 -13.703125 C 33.828125 -11.578125 33.921875 -10 34.109375 -8.96875 C 34.304688 -7.9375 34.691406 -7.203125 35.265625 -6.765625 C 35.835938 -6.328125 36.75 -6.109375 38 -6.109375 L 38.96875 -6.109375 L 38 0.8125 L 36.125 0.8125 C 33.289062 0.8125 31.15625 0.378906 29.71875 -0.484375 C 28.28125 -1.359375 27.125 -2.71875 26.25 -4.5625 C 24.78125 -2.875 22.984375 -1.554688 20.859375 -0.609375 C 18.742188 0.335938 16.4375 0.8125 13.9375 0.8125 Z M 16.546875 -5.875 C 18.128906 -5.875 19.71875 -6.253906 21.3125 -7.015625 C 22.914062 -7.773438 24.265625 -8.832031 25.359375 -10.1875 L 25.359375 -19.65625 C 15.578125 -19.320312 10.6875 -16.578125 10.6875 -11.421875 C 10.6875 -7.722656 12.640625 -5.875 16.546875 -5.875 Z M 16.546875 -5.875 "/></g></g><g style="fill:#545454;fill-opacity:1;"><g transform="translate(538.039103, 78.171419)"><path style="stroke:none" d="M 4.890625 -40.28125 L 12.390625 -40.28125 L 12.96875 -34.65625 C 16.550781 -38.945312 20.300781 -41.09375 24.21875 -41.09375 C 24.8125 -41.09375 25.4375 -41.035156 26.09375 -40.921875 L 25.359375 -32.046875 C 24.484375 -32.265625 23.503906 -32.375 22.421875 -32.375 C 20.578125 -32.375 18.835938 -31.9375 17.203125 -31.0625 C 15.566406 -30.195312 14.398438 -29.191406 13.703125 -28.046875 L 13.703125 0 L 4.890625 0 Z M 4.890625 -40.28125 "/></g></g><g style="fill:#545454;fill-opacity:1;"><g transform="translate(564.289972, 78.171419)"><path style="stroke:none" d="M 18.421875 0.8125 C 14.890625 0.8125 12.238281 -0.148438 10.46875 -2.078125 C 8.707031 -4.003906 7.828125 -6.382812 7.828125 -9.21875 L 7.828125 -33.515625 L 1.390625 -33.515625 L 2.125 -40.28125 L 7.828125 -40.28125 L 7.828125 -49.8125 L 16.3125 -50.625 L 16.3125 -40.28125 L 26.171875 -40.28125 L 26.171875 -33.515625 L 16.3125 -33.515625 L 16.3125 -13.53125 C 16.3125 -11.03125 16.457031 -9.304688 16.75 -8.359375 C 17.050781 -7.410156 17.660156 -6.796875 18.578125 -6.515625 C 19.503906 -6.242188 21.25 -6.109375 23.8125 -6.109375 L 26.015625 -6.109375 L 25.359375 0.8125 Z M 18.421875 0.8125 "/></g></g><g style="fill:#545454;fill-opacity:1;"><g transform="translate(592.008273, 78.171419)"><path style="stroke:none" d="M 24.953125 -41.015625 C 30.328125 -41.015625 34.316406 -39.367188 36.921875 -36.078125 C 39.535156 -32.785156 40.84375 -28.207031 40.84375 -22.34375 L 40.84375 0 L 32.375 0 L 32.375 -22.015625 C 32.375 -26.085938 31.640625 -29.0625 30.171875 -30.9375 C 28.703125 -32.8125 26.28125 -33.75 22.90625 -33.75 C 20.84375 -33.75 18.992188 -33.367188 17.359375 -32.609375 C 15.734375 -31.847656 14.40625 -30.734375 13.375 -29.265625 L 13.375 0 L 4.890625 0 L 4.890625 -40.28125 L 12.140625 -40.28125 L 12.640625 -36.609375 C 16.273438 -39.546875 20.378906 -41.015625 24.953125 -41.015625 Z M 24.953125 -41.015625 "/></g></g><g style="fill:#545454;fill-opacity:1;"><g transform="translate(637.335856, 78.171419)"><path style="stroke:none" d="M 24.21875 0.8125 C 19.59375 0.8125 15.632812 -0.132812 12.34375 -2.03125 C 9.0625 -3.9375 6.59375 -6.492188 4.9375 -9.703125 C 3.28125 -12.910156 2.453125 -16.5 2.453125 -20.46875 C 2.453125 -24.21875 3.222656 -27.65625 4.765625 -30.78125 C 6.316406 -33.90625 8.570312 -36.390625 11.53125 -38.234375 C 14.5 -40.085938 18.019531 -41.015625 22.09375 -41.015625 C 27.414062 -41.015625 31.65625 -39.453125 34.8125 -36.328125 C 37.96875 -33.203125 39.546875 -29.03125 39.546875 -23.8125 C 39.546875 -22.394531 39.378906 -20.867188 39.046875 -19.234375 L 11.171875 -19.234375 C 11.710938 -14.722656 13.21875 -11.460938 15.6875 -9.453125 C 18.164062 -7.441406 21.304688 -6.4375 25.109375 -6.4375 C 29.398438 -6.4375 33.34375 -7.363281 36.9375 -9.21875 L 37.75 -2.28125 C 33.394531 -0.21875 28.882812 0.8125 24.21875 0.8125 Z M 30.8125 -25.03125 C 30.8125 -27.582031 30.078125 -29.671875 28.609375 -31.296875 C 27.148438 -32.929688 24.953125 -33.75 22.015625 -33.75 C 16.523438 -33.75 13.070312 -30.84375 11.65625 -25.03125 Z M 30.8125 -25.03125 "/></g></g><g style="fill:#545454;fill-opacity:1;"><g transform="translate(679.157888, 78.171419)"><path style="stroke:none" d="M 4.890625 -40.28125 L 12.390625 -40.28125 L 12.96875 -34.65625 C 16.550781 -38.945312 20.300781 -41.09375 24.21875 -41.09375 C 24.8125 -41.09375 25.4375 -41.035156 26.09375 -40.921875 L 25.359375 -32.046875 C 24.484375 -32.265625 23.503906 -32.375 22.421875 -32.375 C 20.578125 -32.375 18.835938 -31.9375 17.203125 -31.0625 C 15.566406 -30.195312 14.398438 -29.191406 13.703125 -28.046875 L 13.703125 0 L 4.890625 0 Z M 4.890625 -40.28125 "/></g></g><g style="fill:#545454;fill-opacity:1;"><g transform="translate(705.408757, 78.171419)"><path style="stroke:none" d="M 16.3125 0.8125 C 11.195312 0.8125 6.628906 -0.273438 2.609375 -2.453125 L 3.5 -10.265625 C 5.082031 -9.128906 6.929688 -8.164062 9.046875 -7.375 C 11.171875 -6.59375 13.484375 -6.203125 15.984375 -6.203125 C 18.316406 -6.203125 20.109375 -6.582031 21.359375 -7.34375 C 22.609375 -8.101562 23.234375 -9.242188 23.234375 -10.765625 C 23.234375 -12.453125 22.566406 -13.742188 21.234375 -14.640625 C 19.898438 -15.535156 17.957031 -16.390625 15.40625 -17.203125 C 12.800781 -18.066406 10.65625 -18.921875 8.96875 -19.765625 C 7.28125 -20.609375 5.894531 -21.789062 4.8125 -23.3125 C 3.726562 -24.832031 3.1875 -26.789062 3.1875 -29.1875 C 3.1875 -32.613281 4.472656 -35.453125 7.046875 -37.703125 C 9.628906 -39.960938 13.367188 -41.09375 18.265625 -41.09375 C 22.503906 -41.09375 26.363281 -40.140625 29.84375 -38.234375 L 28.9375 -30.734375 C 27.257812 -31.984375 25.585938 -32.945312 23.921875 -33.625 C 22.265625 -34.3125 20.429688 -34.65625 18.421875 -34.65625 C 16.304688 -34.65625 14.648438 -34.242188 13.453125 -33.421875 C 12.253906 -32.609375 11.65625 -31.414062 11.65625 -29.84375 C 11.65625 -28.695312 11.953125 -27.769531 12.546875 -27.0625 C 13.148438 -26.363281 14.019531 -25.769531 15.15625 -25.28125 C 16.300781 -24.789062 18.097656 -24.109375 20.546875 -23.234375 C 24.023438 -22.035156 26.78125 -20.566406 28.8125 -18.828125 C 30.851562 -17.085938 31.875 -14.535156 31.875 -11.171875 C 31.875 -7.691406 30.609375 -4.820312 28.078125 -2.5625 C 25.554688 -0.3125 21.632812 0.8125 16.3125 0.8125 Z M 16.3125 0.8125 "/></g></g></g></svg>